<svg width="31" height="31" viewBox="0 0 31 31" fill="none" xmlns="http://www.w3.org/2000/svg">
<rect width="31" height="31" rx="3" fill="#FFFAE1"/>
<path d="M19.4286 12.4949C19.3789 12.4878 19.3291 12.4878 19.2794 12.4949C18.1783 12.4593 17.3044 11.5571 17.3044 10.4489C17.3044 9.31929 18.2209 8.39575 19.3575 8.39575C20.4871 8.39575 21.4107 9.31219 21.4107 10.4489C21.4035 11.5571 20.5297 12.4593 19.4286 12.4949Z" fill="#FFD66B"/>
<path d="M21.7446 17.418C20.9489 17.9509 19.8336 18.1498 18.8035 18.0148C19.0734 17.4323 19.2155 16.7858 19.2226 16.1038C19.2226 15.3934 19.0663 14.7185 18.7679 14.1288C19.8194 13.9867 20.9347 14.1856 21.7375 14.7185C22.8599 15.4573 22.8599 16.6721 21.7446 17.418Z" fill="#FFD66B"/>
<path d="M11.55 12.4949C11.5998 12.4878 11.6495 12.4878 11.6992 12.4949C12.8004 12.4593 13.6742 11.5571 13.6742 10.4489C13.6742 9.31219 12.7577 8.39575 11.6211 8.39575C10.4915 8.39575 9.57507 9.31219 9.57507 10.4489C9.57507 11.5571 10.4489 12.4593 11.55 12.4949Z" fill="#FFD66B"/>
<path d="M11.6282 16.1038C11.6282 16.7929 11.7773 17.4465 12.0473 18.0361C11.0456 18.1427 10.0013 17.9296 9.23406 17.4252C8.1116 16.6792 8.1116 15.4644 9.23406 14.7185C9.9942 14.207 11.0669 14.001 12.0757 14.1146C11.7845 14.7114 11.6282 15.3863 11.6282 16.1038Z" fill="#FFD66B"/>
<path d="M15.5853 18.2493C15.5284 18.2422 15.4645 18.2422 15.4006 18.2493C14.0934 18.2067 13.0491 17.134 13.0491 15.8126C13.0562 14.4628 14.1431 13.3688 15.5 13.3688C16.8498 13.3688 17.9438 14.4628 17.9438 15.8126C17.9367 17.134 16.8995 18.2067 15.5853 18.2493Z" fill="#FFD66B"/>
<path d="M13.2763 19.7199C12.2036 20.4374 12.2036 21.6167 13.2763 22.3271C14.4983 23.1441 16.5016 23.1441 17.7236 22.3271C18.7963 21.6096 18.7963 20.4303 17.7236 19.7199C16.5087 18.9029 14.5054 18.9029 13.2763 19.7199Z" fill="#FFD66B"/>
</svg>
